<?xml version="1.0" encoding="UTF-8"?>
<svg version="1.1" xmlns="http://www.w3.org/2000/svg" width="1024" height="1024">
<path d="M0 0 C337.92 0 675.84 0 1024 0 C1024 337.92 1024 675.84 1024 1024 C686.08 1024 348.16 1024 0 1024 C0 686.08 0 348.16 0 0 Z " fill="#F9F9F9" transform="translate(0,0)"/>
<path d="M0 0 C1.34781629 0.00852308 2.69563552 0.01659247 4.04345703 0.02424622 C7.67728714 0.04628396 11.31103573 0.07497812 14.94480586 0.10520124 C18.75416087 0.13601713 22.56355209 0.16154018 26.37294006 0.18789673 C32.76054117 0.23295425 39.14809678 0.28242914 45.53564453 0.33447266 C52.92421683 0.39460968 60.3128148 0.44733945 67.70146936 0.49624097 C74.81621424 0.54352886 81.93090801 0.59635071 89.04559517 0.65159988 C92.07226126 0.67498527 95.09893176 0.69635631 98.1256237 0.71610641 C101.68221674 0.73953981 105.23873935 0.76778255 108.7952652 0.79979515 C110.72707686 0.81601695 112.65892744 0.82737221 114.59077454 0.83860779 C116.30449753 0.85545876 116.30449753 0.85545876 118.05284119 0.87265015 C119.04959334 0.88040152 120.0463455 0.88815289 121.07330227 0.89613914 C123.43383789 1.03759766 123.43383789 1.03759766 125.43383789 2.03759766 C126.26250028 24.13526144 125.73320143 51.33830111 110.05883789 68.66259766 C99.39464248 78.31115541 88.32836192 78.51656852 74.75024414 78.69775391 C73.00932475 78.73208032 71.26843368 78.76787095 69.52757263 78.80503845 C64.94615694 78.89991945 60.36462004 78.97935358 55.78283691 79.05413818 C47.64663862 79.18833359 39.51082082 79.34272976 31.37524414 79.51025391 C30.06577159 79.53704287 30.06577159 79.53704287 28.72984505 79.56437302 C-6.01014718 80.3010893 -37.58820777 83.39428747 -68.56616211 100.03759766 C-69.7147168 100.64216797 -70.86327148 101.24673828 -72.04663086 101.86962891 C-87.32645622 110.22166233 -101.0115832 120.91011594 -113.91235352 132.546875 C-115.39554582 133.88380624 -116.89213099 135.2058441 -118.39038086 136.52587891 C-125.45800187 142.84741724 -132.16502554 149.53275183 -138.87866211 156.22509766 C-139.35506134 156.69881805 -139.83146057 157.17253845 -140.32229614 157.66061401 C-145.43125563 162.74777187 -150.40819339 167.88172133 -155.10205078 173.35522461 C-156.98950018 175.52404465 -159.0031979 177.53621447 -161.06616211 179.53759766 C-163.8147374 182.25372771 -166.47173139 184.99343047 -169.00366211 187.91259766 C-169.54651855 188.51483154 -170.089375 189.11706543 -170.64868164 189.73754883 C-172.65125288 192.03711334 -172.65125288 192.03711334 -174.32373047 194.82250977 C-177.26383241 198.95947347 -179.8402193 202.34641648 -184.85922241 203.61901855 C-191.45887139 204.4219636 -198.06919041 204.03937717 -204.69116211 203.72509766 C-206.71707065 203.66984855 -208.74312421 203.6196711 -210.76928711 203.57470703 C-215.70519249 203.45420027 -220.63406549 203.2648466 -225.56616211 203.03759766 C-224.99940179 199.02017507 -223.79130754 196.46041808 -221.51538086 193.11962891 C-220.51764648 191.63982544 -220.51764648 191.63982544 -219.49975586 190.13012695 C-218.75854492 189.04771729 -218.01733398 187.96530762 -217.25366211 186.85009766 C-216.46890604 185.69160978 -215.68508142 184.53249051 -214.90209961 183.37280273 C-213.60597432 181.45328205 -212.30919034 179.534236 -211.00961304 177.61705017 C-207.13746518 171.90138736 -203.31036671 166.1564445 -199.49194336 160.40478516 C-198.88033859 159.4841478 -198.26873383 158.56351044 -197.63859558 157.61497498 C-195.17898037 153.91252281 -192.71942845 150.21003198 -190.26254272 146.50576782 C-183.21119248 135.87961534 -176.07268525 125.34795397 -168.56616211 115.03759766 C-167.93661621 114.16901123 -167.30707031 113.3004248 -166.65844727 112.40551758 C-159.17396235 102.11304162 -151.53490762 91.96011273 -143.56616211 82.03759766 C-142.7862793 81.06306641 -142.00639648 80.08853516 -141.20288086 79.08447266 C-136.84920651 73.70065429 -132.34790202 68.49001652 -127.68334961 63.37353516 C-125.77536008 61.26841018 -123.91569142 59.13146132 -122.06616211 56.97509766 C-114.91521982 48.80727825 -107.09981487 41.73430609 -98.56616211 35.03759766 C-97.64061523 34.29509766 -96.71506836 33.55259766 -95.76147461 32.78759766 C-68.71557344 11.67860162 -34.1993509 -0.31232473 0 0 Z " fill="#040505" transform="translate(546.566162109375,357.96240234375)"/>
<path d="M0 0 C1.06318954 -0.00262848 1.06318954 -0.00262848 2.14785767 -0.00531006 C4.48352547 -0.00969413 6.81911661 -0.00679449 9.15478516 -0.00341797 C10.81450413 -0.00409391 12.47422301 -0.00506634 14.13394165 -0.00631714 C17.62576228 -0.0077911 21.11755735 -0.00565634 24.609375 -0.00097656 C28.97786968 0.00460643 33.34630186 0.00142542 37.71479416 -0.00442886 C59.6850805 -0.02919116 81.61350337 0.30247611 103.56884766 1.12939453 C102.82986952 23.40622628 101.11224655 53.46766443 84.69384766 70.44189453 C73.97546712 78.44834952 59.83369562 78.84374092 47.04931641 78.73095703 C45.41375175 78.73648209 43.77819413 78.74462881 42.14265442 78.75521851 C37.8772677 78.77785827 33.61239816 78.77398879 29.34698486 78.76141357 C21.72686034 78.7407677 14.10685117 78.75199473 6.48681641 78.79345703 C5.27517917 78.79979975 5.27517917 78.79979975 4.03906441 78.8062706 C-7.66791413 78.88730415 -18.99361141 79.46289563 -30.43115234 82.12939453 C-31.40109131 82.34837402 -32.37103027 82.56735352 -33.37036133 82.79296875 C-35.69516171 83.3705057 -37.9623133 84.02571257 -40.24365234 84.75439453 C-41.05656738 85.00817871 -41.86948242 85.26196289 -42.70703125 85.5234375 C-77.8448645 96.82562763 -110.08815127 116.65337344 -138.43115234 140.12939453 C-139.32060547 140.84611328 -140.21005859 141.56283203 -141.12646484 142.30126953 C-146.661146 146.77218189 -151.97828481 151.38562213 -157.14208984 156.28173828 C-159.43115234 158.12939453 -159.43115234 158.12939453 -164.43115234 160.12939453 C-173.01115234 151.54939453 -181.59115234 142.96939453 -190.43115234 134.12939453 C-186.8711524 125.22939468 -179.96693228 118.49860999 -173.56396484 111.47705078 C-171.75841063 109.4896184 -169.99379089 107.47785973 -168.24365234 105.44189453 C-158.44421136 94.25511696 -148.05630206 83.6527365 -137.55615234 73.12939453 C-137.0165387 72.58719269 -136.47692505 72.04499084 -135.92095947 71.48635864 C-130.44727389 65.99198115 -124.95977763 60.56263327 -119.05908203 55.52099609 C-116.97930883 53.74314558 -114.99316123 51.87161077 -112.99365234 50.00439453 C-101.75677847 39.88948195 -89.44839554 30.81866628 -76.43115234 23.12939453 C-75.81933105 22.76394531 -75.20750977 22.39849609 -74.57714844 22.02197266 C-56.09387546 11.14779625 -35.59306778 4.33027879 -14.43115234 1.12939453 C-13.38334595 0.9600943 -12.33553955 0.79079407 -11.25598145 0.61636353 C-7.45556719 0.13250298 -3.82944599 0.00239786 0 0 Z " fill="#040405" transform="translate(555.43115234375,473.87060546875)"/>
<path d="M0 0 C1.6622616 0.00119684 3.32452388 0.0016439 4.98678589 0.00138855 C8.45445048 0.00294227 11.92201023 0.01114021 15.38964844 0.0246582 C19.77615765 0.04156561 24.16255144 0.04547389 28.54908943 0.04471302 C31.97947234 0.04498865 35.40983133 0.05053295 38.84020615 0.05771446 C40.45449519 0.06083919 42.06878687 0.06285354 43.68307877 0.06360817 C55.33532889 0.07501587 66.92400802 0.52617732 78.5546875 1.23046875 C78.65451704 22.40965778 74.94855163 48.72158504 60.3671875 65.04296875 C45.62072761 78.69709828 22.33201779 76.6725236 3.8046875 76.73046875 C-15.6937009 76.79181799 -34.410944 77.33933035 -53.1953125 83.04296875 C-54.06961914 83.30231201 -54.94392578 83.56165527 -55.84472656 83.82885742 C-74.49158419 89.48548118 -91.54306887 97.98552961 -107.4453125 109.23046875 C-110.58269404 107.8396635 -112.70006531 106.22024671 -115.11230469 103.79052734 C-115.81272888 103.08995209 -116.51315308 102.38937683 -117.23480225 101.66757202 C-118.35220795 100.53468246 -118.35220795 100.53468246 -119.4921875 99.37890625 C-120.26338928 98.60487457 -121.03459106 97.8308429 -121.8291626 97.03335571 C-124.28928106 94.56204952 -126.74235098 92.08387692 -129.1953125 89.60546875 C-130.86282144 87.92792823 -132.53078482 86.2508393 -134.19921875 84.57421875 C-138.2865362 80.46485956 -142.36808946 76.34984228 -146.4453125 72.23046875 C-144.67576596 68.38756495 -142.61802657 66.42614782 -139.3203125 63.73046875 C-138.53285645 63.08634033 -138.53285645 63.08634033 -137.72949219 62.42919922 C-131.4642517 57.35482713 -124.9837079 52.56377044 -118.50537109 47.76708984 C-116.47957071 46.25602234 -114.47009606 44.72570119 -112.46484375 43.1875 C-78.92855234 17.52260497 -42.93113512 -0.20746146 0 0 Z " fill="#050505" transform="translate(562.4453125,586.76953125)"/>
</svg>
